<?xml version="1.0" encoding="iso-8859-1"?>
<!-- Generator: Adobe Illustrator 19.0.0, SVG Export Plug-In . SVG Version: 6.00 Build 0)  -->
<svg version="1.1" id="Layer_1" xmlns="http://www.w3.org/2000/svg" xmlns:xlink="http://www.w3.org/1999/xlink" x="0px" y="0px"
	 viewBox="0 0 512 512" style="enable-background:new 0 0 512 512;" xml:space="preserve">
<g>
	<g>
		<g>
			<path d="M124.673,272.418c1.067,0.444,2.167,0.648,3.26,0.648c3.345,0,6.528-1.98,7.885-5.274L237.953,20.975
				c0.691-0.947,3.328-3.908,9.446-3.908c4.267,0,9.003,2.91,12.646,7.791c6.434,8.593,8.218,20.736,4.983,31.812l-42.667,110.933
				c-1.69,4.395,0.503,9.335,4.907,11.034c4.395,1.673,9.327-0.503,11.034-4.907l42.88-111.59
				c4.966-16.862,2.167-34.62-7.467-47.505C266.762,5.333,257.17,0,247.4,0c-14.054,0-22.101,8.252-24.951,13.807l-102.4,247.467
				C118.248,265.626,120.313,270.618,124.673,272.418z"/>
			<path d="M109.407,238.805c0.495,0.085,0.981,0.128,1.468,0.128c4.079,0,7.68-2.918,8.397-7.074l34.133-196.267
				c0.077-0.41,0.12-0.947,0.128-1.357c0.102-3.942,1.664-8.636,8.533-8.636c7.552,0,9.011,2.807,11.947,14.797
				c0.375,1.519,0.751,3.029,1.152,4.514c1.246,4.548,5.914,7.219,10.479,5.99c4.548-1.246,7.228-5.939,5.99-10.479
				c-0.367-1.34-0.708-2.722-1.041-4.096c-2.551-10.394-6.818-27.793-28.527-27.793c-18.295,0-25.233,14.524-25.591,24.781
				l-34.014,195.627C101.65,233.583,104.765,238.003,109.407,238.805z"/>
			<path d="M442.668,299.964c-2.603-2.594-5.265-4.651-7.962-6.212c0.614-0.469,1.229-0.973,1.843-1.519
				c16.324-14.558,5.811-32.879,1.459-40.465c-16.043-28.134-82.014-89.634-105.276-89.634c-29.662,0-108.399,36.599-142.566,70.767
				c-10.726,10.718-11.034,29.525-11.034,31.633c0,4.702,3.806,8.508,8.508,8.516h0.026c4.693,0,8.508-3.797,8.533-8.491
				c0.017-3.541,1.169-14.729,6.033-19.593c32.614-32.614,107.298-65.766,130.492-65.766c12.126,0.358,73.19,50.739,90.871,81.749
				c5.811,10.121,6.187,14.455,1.587,18.552c-4.275,3.823-9.344,1.749-22.588-9.208c-1.69-1.391-3.319-2.739-4.881-3.959
				c-3.149-2.458-7.1-5.649-11.469-9.173c-30.814-24.892-45.056-35.294-53.513-35.294c-12.186,0-68.267,36.83-68.267,59.733
				c0,20.693,37.026,76.8,59.733,76.8c24.798,0,70.11-31.556,82.79-46.746c1.963-1.929,12.262-10.957,23.612,0.375
				c10.863,10.863-0.759,24.875-1.655,25.95l-85.18,82.654c-17.178,17.178-25.566,54.016-27.597,74.3H183.835
				c-60.809-96.691-91.913-188.058-98.825-215.424c-6.545-25.899-8.277-143.923-8.277-202.709c0-3.831,4.702-8.533,8.533-8.533
				c9.455,0,9.847,1.178,12.416,8.815l0.87,2.543c1.553,4.446,6.426,6.793,10.871,5.222c4.446-1.562,6.784-6.434,5.222-10.871
				l-0.785-2.33c-3.063-9.105-6.869-20.446-28.595-20.446c-13.158,0-25.6,12.442-25.6,25.6c0,7.023,0.102,172.476,8.789,206.891
				c7.202,28.484,39.817,124.314,103.475,224.358c1.57,2.458,4.284,3.951,7.202,3.951H324.2c4.71,0,8.533-3.823,8.533-8.533
				c0-16.802,8.772-56.439,23.006-70.673l85.53-83.021C449.606,340.403,460.622,317.918,442.668,299.964z M394.455,300.092
				c-12.083,14.421-52.898,41.242-70.255,41.242c-10.368,0-42.667-45.218-42.667-59.733c0-9.523,39.868-39.279,51.132-42.53
				c7.177,2.543,31.147,21.905,42.854,31.36c4.454,3.601,8.482,6.861,11.699,9.37c1.442,1.118,2.944,2.364,4.497,3.644
				c3.576,2.961,7.97,6.596,12.86,9.549C400.624,294.903,397.16,297.412,394.455,300.092z"/>
		</g>
	</g>
</g>
<g>
</g>
<g>
</g>
<g>
</g>
<g>
</g>
<g>
</g>
<g>
</g>
<g>
</g>
<g>
</g>
<g>
</g>
<g>
</g>
<g>
</g>
<g>
</g>
<g>
</g>
<g>
</g>
<g>
</g>
</svg>
